<?xml version="1.0" standalone="yes"?>
<svg xmlns="http://www.w3.org/2000/svg" width="512" height="512">
<path style="fill:#ffffff; stroke:none;" d="M0 0L0 512L140 512C130.414 495.836 140.195 475.145 131.11 458C111.301 420.616 86.4045 384.872 63.9498 349C53.793 332.774 39.6676 315.439 34.0394 297C30.8164 286.441 32 274.906 32 264L32 208L32 154C32 144.679 30.5427 133.972 33.4676 125C37.4862 112.673 48.4484 104.395 61 102.439C68.0819 101.335 73.2945 105.045 80 105.411C87.1554 105.802 93.4061 101.134 101 102.464C131.998 107.893 129 137.888 129 162L129 207C128.998 212.651 129.094 219.746 121.996 221.007C109.467 223.233 112 203.021 112 196C112 175.918 116.207 150.496 111.467 131C109.462 122.755 101.869 119.183 94 120C99.7706 159.221 97 200.2 97 240C130.555 227.078 155.189 266.189 176 287C200.64 311.64 233.146 335.723 244.255 370C252.409 395.161 248 425.801 248 452C248 469.233 253.308 497.202 244 512L268 512C258.692 497.202 264 469.233 264 452C264 425.801 259.591 395.161 267.745 370C278.853 335.723 311.36 311.64 336 287C356.842 266.158 381.451 227.08 415 240C415 200.2 412.229 159.221 418 120C410.131 119.183 402.538 122.755 400.533 131C395.793 150.496 400 175.918 400 196C400 203.021 402.533 223.233 390.004 221.007C382.906 219.746 383.002 212.651 383 207L383 162C383 137.888 380.002 107.893 411 102.464C418.594 101.134 424.845 105.802 432 105.411C438.705 105.045 443.918 101.335 451 102.439C464.519 104.546 475.332 113.683 478.981 127C481.373 135.728 480 146.009 480 155L480 208L480 264C480 274.906 481.184 286.441 477.961 297C472.332 315.439 458.207 332.774 448.05 349C425.595 384.872 400.7 420.616 380.89 458C371.805 475.145 381.586 495.836 372 512L512 512L512 0L263 0L263 1C295.424 3.64832 320.038 34.3208 324 65L355 65C359.432 65 365.09 64.1179 368.606 67.4337C374.463 72.9581 372 85.7245 372 93C372 99.95 372.673 107.228 370.841 114C364.844 136.171 345.908 144 325 144L325 248C325 256.21 329.119 278.287 317.999 280.512C304.163 283.28 308 256.367 308 249C308 212.408 304.046 173.341 308.109 137C309.884 121.124 334.841 129.658 344.996 123.031C358.309 114.342 355 95.6059 355 82L325 82C320.615 82 314.97 82.8966 311.225 80.1065C304.256 74.9162 305.51 57.0636 301.68 49C288.834 21.9565 257.515 10.4972 230 21.0648C185.069 38.3216 196 96.0576 196 134C196 151.995 191.676 177.506 215 182.482C227.727 185.198 239.175 176.04 242.1 164C247.614 141.304 243 112.358 243 89C243 83.1843 241.367 74.316 244.179 69.044C246.942 63.8635 253.594 62.7593 257.566 67.2284C264.37 74.8832 260 99.1172 260 109C260 129.052 264.744 156.257 256.662 175C247.49 196.271 221.743 206.312 201 195.726C192.441 191.358 187.512 184.523 182 177L181 177C174.94 183.06 157.895 207.274 148.395 198.427C143.032 193.433 147.052 187.251 151.044 183C158.268 175.308 176.176 163.775 177.852 153C185.609 103.128 161.033 44.1071 213 10.6983C220.69 5.75433 229.825 1.74939 239 1L217 0L168 0L0 0z"/>
<path style="fill:#010101; stroke:none;" d="M181 177L182 177C195.905 203.019 233.508 209.326 252.073 183.999C260.446 172.576 260 159.472 260 146L260 96C260 88.6201 262.879 73.3435 258.258 67.2284C254.854 62.7243 246.952 63.1824 244.179 68.1088C241.42 73.011 243 81.5456 243 87L243 137C243 145.778 244.155 155.46 241.841 164C238.928 174.754 227.831 184.952 216 182.481C191.941 177.457 196 151.508 196 133C196 94.6798 185.699 38.4636 231 21.0648C258.551 10.4833 288.989 23.2819 301.68 50C305.311 57.6449 304.245 75.0261 310.419 80.1065C313.923 82.99 319.787 82 324 82L355 82C355 96.2585 357.925 114.019 343.999 123.031C334.387 129.251 309.73 121.518 308.109 136C304.005 172.662 308 212.084 308 249C308 257.145 303.769 284.542 318.995 280.562C329.035 277.938 325 255.96 325 248L325 144C330.575 144 336.555 144.617 342 143.24C367.641 136.754 372 114.783 372 92C372 85.2543 374.38 72.76 369.347 67.4337C366.12 64.0186 360.239 65 356 65L324 65C319.19 4.56049 239.057 -22.8846 198.171 22.0038C164.634 58.8234 184.674 108.143 177.852 152C175.485 167.219 151.562 174.687 146.152 189C143.322 196.488 150.544 203.686 158 199.972C166.199 195.889 175.776 184.416 181 177M97 240C97 201.385 102.623 157.613 94 120C102 119.613 109.45 123.701 111.467 132C116.206 151.498 112 176.917 112 197C112 203.872 109.499 216.905 117.055 220.667C130.076 227.151 129 207.877 129 201L129 149C129 139.311 130.262 129.037 126.099 120C120.703 108.288 107.755 101.258 95 102.09C89.776 102.431 84.1348 105.665 79 104.89C62.0643 102.334 46.6181 100.632 36.2577 118C31.0939 126.657 32 136.319 32 146L32 195L32 260C32 272.07 30.4545 285.272 33.7461 297C38.3595 313.437 50.6382 328.649 59.5764 343C76.3477 369.928 93.2091 396.84 109.601 424C117.727 437.464 130.121 451.741 134.405 467C137.179 476.879 135.996 487.852 136 498C136.003 504.495 136.447 512.299 144.999 511.922C155.599 511.455 153 497.208 153 490C153 464.298 146.598 449.871 133.399 428C114.781 397.15 95.6257 366.586 76.5764 336C68.0184 322.259 54.829 306.751 50.6057 291C47.7031 280.175 49 268.092 49 257L49 199L49 143C49.0006 134.37 49.8418 124.887 58.9969 120.998C66.7656 117.699 74.949 122.489 77.9907 130C81.8433 139.513 79 154.81 79 165L79 244C79 256.841 76.9662 272.218 83.135 284C88.6602 294.552 98.699 302.699 107 311L149 353C154.074 358.074 168.609 375.34 175.542 362.891C180.297 354.355 168.148 346.148 163 341L110 288C105.132 283.13 98.042 277.362 97.2539 270C96.0227 258.5 109.395 250.641 119 256.228C132.119 263.861 143.3 279.3 154 290C178.682 314.682 216.03 340.966 227.484 375C235.085 397.586 231 425.427 231 449C231 465.999 230.911 483.001 231.001 500C231.036 506.673 233.755 513.667 241.995 511.678C250.009 509.745 248 499.165 248 493L248 433C248 412.051 250.79 389.168 244.255 369C231.966 331.08 193.287 303.287 166 276C148.624 258.624 125.441 225.092 97 240M418 120C409.377 157.613 415 201.385 415 240C386.555 225.09 363.407 258.593 346 276C318.713 303.287 280.034 331.08 267.745 369C261.21 389.168 264 412.051 264 433L264 493C264 499.165 261.991 509.745 270.005 511.678C278.245 513.667 280.964 506.673 280.999 500C281.089 483.001 281 465.999 281 449C281 425.427 276.915 397.586 284.516 375C295.97 340.966 333.318 314.682 358 290C368.7 279.3 379.881 263.861 393 256.228C402.605 250.641 415.977 258.5 414.746 270C413.958 277.362 406.868 283.13 402 288L349 341C343.852 346.148 331.703 354.355 336.458 362.891C343.391 375.34 357.926 358.074 363 353L406 310C413.918 302.082 423.833 294.133 429.004 284C435.023 272.204 433 256.793 433 244L433 165C433 154.81 430.157 139.513 434.009 130C437.037 122.524 445.27 117.667 453.014 120.998C462.152 124.93 462.999 134.348 463 143L463 199L463 257C463 268.092 464.297 280.175 461.394 291C457.171 306.751 443.982 322.259 435.424 336C416.374 366.586 397.22 397.15 378.601 428C365.402 449.871 359 464.298 359 490C359 497.208 356.401 511.455 367.001 511.922C375.553 512.299 375.997 504.495 376 498C376.004 487.852 374.822 476.879 377.595 467C381.879 451.741 394.273 437.464 402.399 424C418.791 396.839 435.652 369.928 452.424 343C461.362 328.649 473.64 313.437 478.254 297C481.545 285.272 480 272.07 480 260L480 195L480 147C480 136.571 480.919 126.237 475.12 117.001C464.69 100.386 449.385 102.417 433 104.89C427.865 105.665 422.224 102.431 417 102.09C404.245 101.258 391.297 108.288 385.901 120C381.738 129.037 383 139.311 383 149L383 201C383 207.877 381.924 227.151 394.945 220.667C402.501 216.905 400 203.872 400 197C400 176.917 395.794 151.498 400.533 132C402.542 123.735 410.006 119.592 418 120z"/>
<path style="fill:#ffffff; stroke:none;" d="M149 512L236 512C227.854 502.447 231 486.945 231 475C231 446.622 234.173 416.152 230.714 388C225.961 349.32 187.694 322.694 162 297C149.25 284.25 137.033 269.663 123 258.34C117.082 253.566 108.258 252.09 102.108 257.394C92.8325 265.394 98.1375 276.742 105.04 284C122.883 302.762 141.692 320.692 160 339C164.277 343.277 188.177 364.635 168.996 366.717C163.236 367.342 158.633 361.615 155 357.999L125 328C111.128 314.128 89.1206 298.638 81.7608 280C76.6519 267.062 79 250.628 79 237L79 167C79 155.708 80.5457 143.155 78.7863 132C76.6781 118.634 58.0278 115.221 51.4174 127.015C47.7846 133.497 49 141.859 49 149L49 194L49 257C49 268.399 47.6233 280.877 50.6057 292C53.7731 303.813 62.8711 314.688 69.189 325C82.0769 346.036 94.9605 367.089 108.05 388C126.563 417.575 153 447.938 153 484C153 493.988 154.235 503.173 149 512M276 511L276 512L363 512C357.765 503.173 359 493.988 359 484C359 447.938 385.437 417.575 403.95 388C417.04 367.089 429.923 346.036 442.811 325C449.129 314.688 458.227 303.813 461.394 292C464.377 280.877 463 268.399 463 257L463 194L463 149C463 141.859 464.215 133.497 460.583 127.015C453.972 115.221 435.322 118.634 433.214 132C431.454 143.155 433 155.708 433 167L433 237C433 251.009 435.349 267.747 429.906 281C422.487 299.062 400.556 314.444 387 328L357 357.999C353.367 361.615 348.764 367.342 343.004 366.717C323.823 364.635 347.723 343.277 352 339C370.599 320.401 390.121 302.376 407.907 283C414.718 275.58 418.745 263.809 408.956 256.653C402.288 251.778 393.742 254.213 388 259.188C374.944 270.5 363.215 283.785 351 296C325.094 321.906 284.983 349.596 281.17 389C278.353 418.103 281 448.751 281 478C281 487.815 284.445 504.306 276 511z"/>
</svg>
